<?xml version="1.0" encoding="UTF-8" standalone="no"?>
<!DOCTYPE svg PUBLIC "-//W3C//DTD SVG 1.1//EN" "http://www.w3.org/Graphics/SVG/1.1/DTD/svg11.dtd">
<svg xmlns="http://www.w3.org/2000/svg" fill="#ffffff" width="33" height="33" version="1.1" viewBox="0 0 23 25">
<g >
<path d="
  M 12.06 1.94
  Q 16.72 2.17 17.92 6.75
  A 0.99 0.99 0.0 0 1 16.96 8.00
  L 5.71 8.00
  A 1.00 1.00 0.0 0 1 4.76 6.70
  Q 6.32 1.65 12.06 1.94
  Z
  M 9.35 5.64
  A 1.07 1.07 0.0 0 0 8.28 4.57
  A 1.07 1.07 0.0 0 0 7.21 5.64
  A 1.07 1.07 0.0 0 0 8.28 6.71
  A 1.07 1.07 0.0 0 0 9.35 5.64
  Z
  M 15.51 5.70
  A 1.04 1.04 0.0 0 0 14.47 4.66
  A 1.04 1.04 0.0 0 0 13.43 5.70
  A 1.04 1.04 0.0 0 0 14.47 6.74
  A 1.04 1.04 0.0 0 0 15.51 5.70
  Z"
/>
<rect x="-1.58" y="-4.56" transform="translate(2.13,12.61) rotate(0.2)" width="3.16" height="9.12" rx="1.51"/>
<rect x="-1.52" y="-4.55" transform="translate(20.69,12.61) rotate(-0.1)" width="3.04" height="9.10" rx="1.44"/>
<path d="
  M 6.64 20.27
  C 5.21 20.03 4.57 19.23 4.52 17.73
  Q 4.40 14.16 4.58 10.45
  A 1.00 1.00 0.0 0 1 5.58 9.50
  L 17.09 9.50
  A 1.00 1.00 0.0 0 1 18.09 10.41
  Q 18.41 14.01 18.24 17.60
  C 18.16 19.20 17.61 20.05 16.08 20.32
  A 1.01 1.00 85.3 0 0 15.25 21.31
  L 15.26 23.47
  A 1.05 1.01 -24.3 0 1 14.98 24.17
  Q 13.87 25.32 12.65 24.41
  A 1.02 1.00 -72.0 0 1 12.25 23.60
  L 12.25 20.63
  A 0.40 0.40 0.0 0 0 11.81 20.23
  L 11.50 20.25
  A 0.80 0.80 0.0 0 0 10.77 21.05
  Q 10.76 22.51 10.41 23.92
  A 1.03 0.99 -6.7 0 1 9.86 24.59
  C 8.38 25.28 7.57 24.33 7.53 22.90
  Q 7.51 22.06 7.47 21.22
  A 1.00 0.99 -86.5 0 0 6.64 20.27
  Z"
/>
</g>
</svg>
