<?xml version="1.0" encoding="UTF-8" standalone="no"?>
<!DOCTYPE svg PUBLIC "-//W3C//DTD SVG 1.1//EN" "http://www.w3.org/Graphics/SVG/1.1/DTD/svg11.dtd">
<svg xmlns="http://www.w3.org/2000/svg" fill="#fff" width="33" height="33" version="1.1" viewBox="0 0 21 26">
<path d="
  M 0.00 14.94
  L 0.00 12.94
  Q 1.78 4.72 9.76 7.69
  C 10.82 8.08 13.07 6.68 14.43 6.68
  Q 16.82 6.69 18.56 8.26
  A 1.00 0.99 41.5 0 1 18.65 9.66
  Q 14.44 14.48 19.53 18.58
  A 1.00 1.00 0.0 0 1 19.75 19.88
  L 17.25 23.96
  Q 15.88 26.21 13.08 24.93
  C 11.48 24.20 9.99 24.40 8.02 25.01
  C 3.09 26.56 0.37 18.21 0.00 14.94
  Z"
/>
<ellipse cx="0.00" cy="0.00" transform="translate(12.52,3.61) rotate(130.6)" rx="3.45" ry="1.47"/>
</svg>
